<svg aria-hidden="true" style="position: absolute; width: 0; height: 0; overflow: hidden;" version="1.1" xmlns="http://www.w3.org/2000/svg" xmlns:xlink="http://www.w3.org/1999/xlink">
<defs>
<symbol id="icon-pen" viewBox="0 0 32 32">
<path d="M6.625 18.044l-3.263 9.936 4.361-4.377c-0.3-0.757-0.226-2.050 0.387-2.662 0.821-0.822 2.173-0.803 2.994 0.019s0.866 2.198 0.045 3.020c-0.625 0.625-1.998 0.661-2.764 0.337l-4.323 4.335 9.701-3.408 3.533-6.364-4.304-4.246-6.367 3.41zM22.981 3.349c0 0-6.011 6.010-6.938 6.938-0.929 0.928-1.414 4.419-1.414 4.419l2.695 2.696c0 0 3.403-0.486 4.375-1.459s6.938-6.938 6.938-6.938l-5.656-5.656z"></path>
</symbol>
<symbol id="icon-pen1" viewBox="0 0 32 32">
<path d="M29.024 6.499l-2.467 2.467-3.523-3.523 2.467-2.467c0.973-0.973 2.551-0.973 3.523 0s0.973 2.55 0 3.523zM27.614 9.317c0.195-0.194 0.511-0.194 0.705 0 0.195 0.195 0.195 0.511 0 0.705l-9.16 9.161c-0.195 0.194-0.511 0.194-0.705 0s-0.194-0.51 0-0.704l5.99-5.99-4.934-4.934 2.114-2.113 4.933 4.933 1.057-1.058zM19.511 8.966l3.523 3.523-14.094 14.094-3.523-3.523 14.094-14.094zM2.246 29.754l2.466-5.989 3.523 3.523-5.989 2.466z"></path>
</symbol>
<symbol id="icon-pencil" viewBox="0 0 32 32">
<path d="M5.582 20.054l14.886-14.886 6.369 6.369-14.886 14.886-6.369-6.369zM21.153 8.758l-0.698-0.697-11.981 11.98 0.698 0.698 11.981-11.981zM22.549 10.154l-0.698-0.698-11.981 11.982 0.697 0.697 11.982-11.981zM23.945 11.55l-0.698-0.698-11.981 11.981 0.698 0.698 11.981-11.981zM23.319 2.356c0.781-0.783 2.045-0.788 2.82-0.013l3.512 3.512c0.775 0.775 0.77 2.038-0.012 2.82l-2.17 2.17-6.32-6.32 2.17-2.169zM5.092 20.883l6.030 6.030-5.284 1.877-2.623-2.623 1.877-5.284zM4.837 29.117l-3.066 1.117 1.117-3.066 1.949 1.949z"></path>
</symbol>
<symbol id="icon-mobile_screen_share" viewBox="0 0 24 24">
<path d="M12.797 13.219q-3.141 0-4.781 2.203 0.938-4.219 4.781-4.734v-1.688l3.188 3-3.188 2.953v-1.734zM17.016 18.984v-13.969h-10.031v13.969h10.031zM17.016 1.031q0.797 0 1.383 0.586t0.586 1.383v18q0 0.797-0.586 1.406t-1.383 0.609h-10.031q-0.797 0-1.383-0.609t-0.586-1.406v-18q0-0.797 0.586-1.406t1.383-0.609z"></path>
</symbol>
<symbol id="icon-create" viewBox="0 0 24 24">
<path d="M20.719 7.031l-1.828 1.828-3.75-3.75 1.828-1.828q0.281-0.281 0.703-0.281t0.703 0.281l2.344 2.344q0.281 0.281 0.281 0.703t-0.281 0.703zM3 17.25l11.063-11.063 3.75 3.75-11.063 11.063h-3.75v-3.75z"></path>
</symbol>
<symbol id="icon-file_download" viewBox="0 0 24 24">
<path d="M5.016 18h13.969v2.016h-13.969v-2.016zM18.984 9l-6.984 6.984-6.984-6.984h3.984v-6h6v6h3.984z"></path>
</symbol>
<symbol id="icon-add_photo_alternate" viewBox="0 0 24 24">
<path d="M5.016 18.984h12l-4.031-4.969-3 3.984-1.969-3zM15.984 11.016h3v7.969q0 0.797-0.586 1.406t-1.383 0.609h-12q-0.797 0-1.406-0.609t-0.609-1.406v-12q0-0.797 0.609-1.383t1.406-0.586h7.969v3h3v3zM18.984 6.984v3h-1.969v-3h-3v-1.969h3v-3h1.969v3h3v1.969h-3z"></path>
</symbol>
<symbol id="icon-share" viewBox="0 0 24 24">
<path d="M18 16.078q1.219 0 2.063 0.867t0.844 2.039q0 1.219-0.867 2.086t-2.039 0.867-2.039-0.867-0.867-2.086q0-0.469 0.047-0.656l-7.078-4.125q-0.891 0.797-2.063 0.797-1.219 0-2.109-0.891t-0.891-2.109 0.891-2.109 2.109-0.891q1.172 0 2.063 0.797l7.031-4.078q-0.094-0.469-0.094-0.703 0-1.219 0.891-2.109t2.109-0.891 2.109 0.891 0.891 2.109-0.891 2.109-2.109 0.891q-1.125 0-2.063-0.844l-7.031 4.125q0.094 0.469 0.094 0.703t-0.094 0.703l7.125 4.125q0.844-0.75 1.969-0.75z"></path>
</symbol>
<symbol id="icon-edit_off" viewBox="0 0 24 24">
<path d="M2.016 5.016l1.969-2.016 16.031 15.984-2.016 2.016-5.625-5.625-5.625 5.625h-3.75v-3.75l5.625-5.625zM20.719 5.625q0.281 0.281 0.281 0.703 0 0.375-0.281 0.656l-1.828 1.875-3.75-3.75 1.828-1.828q0.281-0.281 0.703-0.281t0.703 0.281zM12.141 8.109l1.922-1.922 3.75 3.75-1.922 1.922z"></path>
</symbol>
<symbol id="icon-edit-pencil" viewBox="0 0 20 20">
<path d="M12.3 3.7l4 4-12.3 12.3h-4v-4l12.3-12.3zM13.7 2.3l2.3-2.3 4 4-2.3 2.3-4-4z"></path>
</symbol>
<symbol id="icon-share-01" viewBox="0 0 20 20">
<path d="M4 10c0-1.1 0.9-2 2-2h8c1.1 0 2 0.9 2 2v8c0 1.1-0.9 2-2 2h-8c-1.1 0-2-0.9-2-2v-8zM6 10v8h8v-8h-2v-2h-4v2h-2zM9 3.83v12.17h2v-12.17l3.070 3.070 1.42-1.41-5.49-5.49-5.5 5.5 1.42 1.4 3.080-3.060z"></path>
</symbol>
<symbol id="icon-share-alt" viewBox="0 0 20 20">
<path d="M5.080 12.16c-0.539 0.527-1.276 0.852-2.090 0.852-1.651 0-2.99-1.339-2.99-2.99 0-0.008 0-0.015 0-0.023v0.001c0.001-1.656 1.344-2.998 3-2.998 0.808 0 1.542 0.319 2.081 0.839l-0.001-0.001 8.94-4.47c-0.015-0.113-0.024-0.243-0.024-0.375 0-1.657 1.343-3 3-3s3 1.343 3 3c0 1.657-1.343 3-3 3-0.806 0-1.538-0.318-2.077-0.836l0.001 0.001-8.94 4.47c0.014 0.111 0.023 0.24 0.023 0.37s-0.008 0.259-0.024 0.385l0.002-0.015 8.94 4.47c0.539-0.527 1.276-0.852 2.090-0.852 1.651 0 2.99 1.339 2.99 2.99 0 0.008-0 0.015-0 0.023v-0.001c-0.014 1.646-1.352 2.975-3 2.975-1.657 0-3-1.343-3-3 0-0.122 0.007-0.241 0.021-0.359l-0.001 0.014-8.94-4.47z"></path>
</symbol>
<symbol id="icon-pencil1" viewBox="0 0 32 32">
<path d="M27 0c2.761 0 5 2.239 5 5 0 1.126-0.372 2.164-1 3l-2 2-7-7 2-2c0.836-0.628 1.874-1 3-1zM2 23l-2 9 9-2 18.5-18.5-7-7-18.5 18.5zM22.362 11.362l-14 14-1.724-1.724 14-14 1.724 1.724z"></path>
</symbol>
<symbol id="icon-pencil2" viewBox="0 0 32 32">
<path d="M12 20l4-2 14-14-2-2-14 14-2 4zM9.041 27.097c-0.989-2.085-2.052-3.149-4.137-4.137l3.097-8.525 4-2.435 12-12h-6l-12 12-6 20 20-6 12-12v-6l-12 12-2.435 4z"></path>
</symbol>
<symbol id="icon-quill" viewBox="0 0 32 32">
<path d="M0 32c4-12 14.469-32 32-32-8.219 6.594-12 22-18 22s-6 0-6 0l-6 10h-2z"></path>
</symbol>
<symbol id="icon-pen2" viewBox="0 0 32 32">
<path d="M31.818 9.122l-8.939-8.939c-0.292-0.292-0.676-0.226-0.855 0.146l-1.199 2.497 8.35 8.35 2.497-1.199c0.372-0.178 0.438-0.563 0.146-0.855z"></path>
<path d="M19.231 4.231l-8.231 0.686c-0.547 0.068-1.002 0.184-1.159 0.899-0 0.001-0 0.001-0.001 0.002-2.232 10.721-9.84 21.183-9.84 21.183l1.793 1.793 8.5-8.5c-0.187-0.392-0.293-0.83-0.293-1.293 0-1.657 1.343-3 3-3s3 1.343 3 3-1.343 3-3 3c-0.463 0-0.902-0.105-1.293-0.293l-8.5 8.5 1.793 1.793c0 0 10.462-7.608 21.183-9.84 0.001-0 0.001-0 0.002-0.001 0.714-0.157 0.831-0.612 0.898-1.159l0.686-8.231-8.538-8.539z"></path>
</symbol>
<symbol id="icon-blog3" viewBox="0 0 32 32">
<path d="M12 0v3c2.296 0 4.522 0.449 6.616 1.335 2.024 0.856 3.842 2.082 5.405 3.644s2.788 3.381 3.645 5.405c0.886 2.094 1.335 4.32 1.335 6.616h3c0-11.046-8.954-20-20-20z"></path>
<path d="M12 6v3c2.938 0 5.701 1.144 7.778 3.222s3.222 4.84 3.222 7.778h3c0-7.732-6.268-14-14-14z"></path>
<path d="M15 12l-2 2-7 2-6 13 0.793 0.793 7.275-7.275c-0.044-0.165-0.068-0.339-0.068-0.518 0-1.105 0.895-2 2-2s2 0.895 2 2-0.895 2-2 2c-0.179 0-0.353-0.024-0.518-0.068l-7.275 7.275 0.793 0.793 13-6 2-7 2-2-5-5z"></path>
</symbol>
<symbol id="icon-share1" viewBox="0 0 32 32">
<path d="M8 20c0 0 1.838-6 12-6v6l12-8-12-8v6c-8 0-12 4.99-12 10zM22 24h-18v-12h3.934c0.315-0.372 0.654-0.729 1.015-1.068 1.374-1.287 3.018-2.27 4.879-2.932h-13.827v20h26v-8.395l-4 2.667v1.728z"></path>
</symbol>
<symbol id="icon-share2" viewBox="0 0 32 32">
<path d="M27 22c-1.411 0-2.685 0.586-3.594 1.526l-13.469-6.734c0.041-0.258 0.063-0.522 0.063-0.791s-0.022-0.534-0.063-0.791l13.469-6.734c0.909 0.94 2.183 1.526 3.594 1.526 2.761 0 5-2.239 5-5s-2.239-5-5-5-5 2.239-5 5c0 0.269 0.022 0.534 0.063 0.791l-13.469 6.734c-0.909-0.94-2.183-1.526-3.594-1.526-2.761 0-5 2.239-5 5s2.239 5 5 5c1.411 0 2.685-0.586 3.594-1.526l13.469 6.734c-0.041 0.258-0.063 0.522-0.063 0.791 0 2.761 2.239 5 5 5s5-2.239 5-5c0-2.761-2.239-5-5-5z"></path>
</symbol>
<symbol id="icon-hand-paper-o" viewBox="0 0 26 28">
<path d="M13.75 2c-0.969 0-1.75 0.781-1.75 1.75v10.25h-0.5v-8.25c0-0.969-0.781-1.75-1.75-1.75s-1.75 0.781-1.75 1.75v12.25l-2.406-3.203c-0.375-0.5-0.969-0.797-1.594-0.797-1.109 0-2 0.906-2 2 0 0.438 0.141 0.859 0.406 1.203l6 8c0.375 0.5 0.969 0.797 1.594 0.797h10.75c0.719 0 1.344-0.516 1.484-1.219l1.188-6.328c0.047-0.297 0.078-0.609 0.078-0.922v-7.781c0-0.969-0.781-1.75-1.75-1.75s-1.75 0.781-1.75 1.75v4.25h-0.5v-8.25c0-0.969-0.781-1.75-1.75-1.75s-1.75 0.781-1.75 1.75v8.25h-0.5v-10.25c0-0.969-0.781-1.75-1.75-1.75zM13.75 0c1.406 0 2.703 0.797 3.344 2.063 0.219-0.047 0.438-0.063 0.656-0.063 2.063 0 3.75 1.687 3.75 3.75v0.266c2.172-0.125 4 1.547 4 3.734v7.781c0 0.438-0.047 0.875-0.125 1.297l-1.188 6.312c-0.297 1.656-1.75 2.859-3.437 2.859h-10.75c-1.25 0-2.453-0.609-3.203-1.594l-6-8c-0.516-0.688-0.797-1.547-0.797-2.406 0-2.203 1.781-4 4-4 0.656 0 1.453 0.156 2 0.531v-6.781c0-2.063 1.687-3.75 3.75-3.75 0.219 0 0.438 0.016 0.656 0.063 0.641-1.266 1.937-2.063 3.344-2.063z"></path>
</symbol>
<symbol id="icon-plus" viewBox="0 0 32 32">
<path d="M32 12h-12v-12h-8v12h-12v8h12v12h8v-12h12z"></path>
</symbol>
<symbol id="icon-plus1" viewBox="0 0 24 24">
<path d="M18 10h-4v-4c0-1.104-0.896-2-2-2s-2 0.896-2 2l0.071 4h-4.071c-1.104 0-2 0.896-2 2s0.896 2 2 2l4.071-0.071-0.071 4.071c0 1.104 0.896 2 2 2s2-0.896 2-2v-4.071l4 0.071c1.104 0 2-0.896 2-2s-0.896-2-2-2z"></path>
</symbol>
<symbol id="icon-plus11" viewBox="0 0 24 24">
<path d="M5 13h6v6c0 0.552 0.448 1 1 1s1-0.448 1-1v-6h6c0.552 0 1-0.448 1-1s-0.448-1-1-1h-6v-6c0-0.552-0.448-1-1-1s-1 0.448-1 1v6h-6c-0.552 0-1 0.448-1 1s0.448 1 1 1z"></path>
</symbol>
<symbol id="icon-plus-square" viewBox="0 0 24 24">
<path d="M5 2c-0.828 0-1.58 0.337-2.121 0.879s-0.879 1.293-0.879 2.121v14c0 0.828 0.337 1.58 0.879 2.121s1.293 0.879 2.121 0.879h14c0.828 0 1.58-0.337 2.121-0.879s0.879-1.293 0.879-2.121v-14c0-0.828-0.337-1.58-0.879-2.121s-1.293-0.879-2.121-0.879zM5 4h14c0.276 0 0.525 0.111 0.707 0.293s0.293 0.431 0.293 0.707v14c0 0.276-0.111 0.525-0.293 0.707s-0.431 0.293-0.707 0.293h-14c-0.276 0-0.525-0.111-0.707-0.293s-0.293-0.431-0.293-0.707v-14c0-0.276 0.111-0.525 0.293-0.707s0.431-0.293 0.707-0.293zM8 13h3v3c0 0.552 0.448 1 1 1s1-0.448 1-1v-3h3c0.552 0 1-0.448 1-1s-0.448-1-1-1h-3v-3c0-0.552-0.448-1-1-1s-1 0.448-1 1v3h-3c-0.552 0-1 0.448-1 1s0.448 1 1 1z"></path>
</symbol>
<symbol id="icon-google" viewBox="0 0 533.5 544.3">
  <g>
	<path  fill='#4285F4' d="M512,276.9c0-17-1.4-34.1-4.3-50.8h-236v96.4h135.2c-5.6,31.1-23.6,58.6-50,76V461h80.6
		C484.8,417.4,512,353,512,276.9z"/>
    <path  fill='#34A853' d="M271.7,521.4c67.5,0,124.4-22.2,165.9-60.4l-80.6-62.5c-22.4,15.3-51.4,23.9-85.1,23.9
		c-65.3,0-120.6-44-140.5-103.2H48.1v64.5C90.5,468,177.1,521.4,271.7,521.4z"/>
    <path fill='#FBBC04' d="M131.2,319.1c-10.5-31.1-10.5-64.7,0-95.8v-64.5H48.1c-35.5,70.7-35.5,154,0,224.7L131.2,319.1z"/>
    <path  fill='#EA4335' d="M271.7,120c35.7-0.6,70.2,12.9,96,37.5l0,0L439.1,86c-45.2-42.5-105.3-65.8-167.4-65.1
		c-94.6,0-181.1,53.3-223.6,137.9l83.1,64.5C150.9,164,206.4,120,271.7,120z"/>
</g></symbol>
</defs>
</svg>
